<?xml version="1.0" encoding="UTF-8"?> <!-- Svg Vector Icons : http://www.onlinewebfonts.com/icon --> <svg xmlns="http://www.w3.org/2000/svg" xmlns:xlink="http://www.w3.org/1999/xlink" x="0px" y="0px" viewBox="0 0 1000 1000" xml:space="preserve"> <metadata> Svg Vector Icons : http://www.onlinewebfonts.com/icon </metadata> <g><g transform="translate(0.000000,511.000000) scale(0.100000,-0.100000)"><path d="M4659.5,4857.1c-461-77.5-842.5-280.2-1180.2-623.9c-401.4-409.3-606-906.1-606-1478.3c0-625.9,226.5-1150.5,784.8-1812.1C3870.7,692.4,4580-100.4,4838.3-372.6l164.9-174.9l310,363.6c516.6,606,1071,1273.6,1214,1464.4c288.1,383.5,500.7,808.7,566.3,1136.5c17.9,83.4,31.8,246.4,31.8,359.6c0,572.2-222.5,1090.8-641.8,1498.2c-319.9,310-685.5,500.7-1100.8,572.2C5205.9,4878.9,4816.4,4882.9,4659.5,4857.1z M5219.8,3736.5c387.4-83.5,711.3-401.4,802.7-788.8c83.5-355.7-19.9-707.4-288.1-975.6c-319.9-319.9-778.9-399.4-1182.2-204.6c-655.7,313.9-802.7,1168.3-290.1,1681C4522.4,3708.6,4864.1,3812,5219.8,3736.5z"></path><path d="M6958.4,1379.9c-49.7-77.5-91.4-147-91.4-155s564.3-300,1251.8-649.7S9368.6-66.6,9364.6-74.5c-2-11.9-910-721.3-1684.9-1319.3l-111.3-85.4l-840.5,745.1L5887.4,10.9l-55.6-53.7c-31.8-29.8-57.6-65.6-57.6-75.5c0-11.9,361.7-343.8,804.7-737.2c510.7-453,794.8-719.3,780.9-727.2c-59.6-31.8-2444-975.6-2447.9-969.6c-4,4-665.6,828.5-1470.3,1832c-806.7,1003.4-1460.4,1830-1456.4,1836c6,6,260.3,13.9,566.3,19.9l554.4,11.9l-109.3,174.9l-107.3,176.8l-459-2c-254.3,0-540.5-7.9-639.8-13.9l-178.8-13.9L872.3,964.7C103.4,440.1,77.6,416.3,107.4,303c19.9-81.5,3318.2-4911.8,3373.9-4939.6c75.5-39.7,157-11.9,240.4,85.4c41.7,45.7,365.6,443.1,721.3,878.2l645.8,794.8l1301.4,518.6l1301.5,518.6L8695-1062c552.4,427.2,1045.1,810.7,1094.8,852.4c103.3,87.4,131.2,157,95.4,240.4c-25.8,63.6-97.4,101.3-1830,979.6L7047.8,1521L6958.4,1379.9z M3183.2-700.4c796.8-991.5,1482.3-1843.9,1522-1895.5l75.5-93.4l-598.1-731.2c-327.8-403.4-602-735.2-610-737.2C3562.7-4161.7,721.3-3,564.4,245.4L532.6,297l588.1,403.3c323.9,220.6,596.1,401.4,602.1,401.4C1730.7,1101.8,2388.4,291.1,3183.2-700.4z"></path></g></g> </svg> 